# xmcd
#
# Track frame offsets: 
#        150
#        9697
#        20055
#        32515
#        48252
#        61275
#        68740
#        78880
#        89264
#        102889
#        115541
#        126560
#        140920
#        152619
#        166752
#        178397
#        193632
#        200943
#        215245
#        228661
#        242910
#        250947
#        271489
#        282565
#        294019
#
# Disc length: 4245 seconds
#
# Revision: 2
# Processed by: cddbd v1.5.2PL0 Copyright (c) Steve Scherf et al.
# Submitted via: ExactAudioCopyFreeDBPlugin 1.0
#
DISCID=78109319
DTITLE=Various Artist - 1000 Juke Box Hits - 50 Country Golden Hits Vol.2 - C
DTITLE=D2
DYEAR=1900
DGENRE=Country
TTITLE0=Merle Travis - Sixteen Tons
TTITLE1=Dave Dudley - Six Days On The Road
TTITLE2=Kenny Rogers - Love Woman
TTITLE3=Boxcar Willie - Wabash Cannonball
TTITLE4=Freddy Fender - I Can't Stop Loving You
TTITLE5=Sir Douglas Quintet - Cotton Eyed Joe
TTITLE6=Sheb Wooley - The Purple People Eater
TTITLE7=Waylon Jennings - White Ligthning
TTITLE8=Kenny Rogers - I'm Gonna Sing You A Sad Song Suzie
TTITLE9=Boxcar Willie - Hobo Heaven
TTITLE10=Dolly Parton - Honky Tonk Angels
TTITLE11=Osmond Brothers - Taking Country To The City
TTITLE12=Conway Twitty - Sitting In A Dim Café
TTITLE13=Freddy Fender - Wasted  Days and Wasted Nights
TTITLE14=Freddy Fender - Walking Piece Of Heaven
TTITLE15=Merle Haggard - San Antonio Rose
TTITLE16=Jim Reeves - The Oklahoma Hills
TTITLE17=Loretta Lynn - Coal Miner's Dougther
TTITLE18=Jimmy Dean - Big Bad John
TTITLE19=Phil Carmen - Born A Rider
TTITLE20=Bur Ives - Big Rock Candy Moutain
TTITLE21=Carmen and Thompson - No Chance Romance
TTITLE22=Tammy Wynette - D.I.V.O.R.C.E.
TTITLE23=Loretta Lynn - Love Is The Foundation
TTITLE24=Phil Carmen - Moonshine
EXTD=
EXTT0=
EXTT1=
EXTT2=
EXTT3=
EXTT4=
EXTT5=
EXTT6=
EXTT7=
EXTT8=
EXTT9=
EXTT10=
EXTT11=
EXTT12=
EXTT13=
EXTT14=
EXTT15=
EXTT16=
EXTT17=
EXTT18=
EXTT19=
EXTT20=
EXTT21=
EXTT22=
EXTT23=
EXTT24=
PLAYORDER=
